<?xml version="1.0" standalone="no"?><!DOCTYPE svg PUBLIC "-//W3C//DTD SVG 1.1//EN" "http://www.w3.org/Graphics/SVG/1.1/DTD/svg11.dtd"><svg t="1681198182192" class="icon" viewBox="0 0 1024 1024" version="1.1" xmlns="http://www.w3.org/2000/svg" p-id="32790" xmlns:xlink="http://www.w3.org/1999/xlink" width="32" height="32"><path d="M742.4 139.636364c48.756364 0 93.090909 27.694545 114.618182 71.121454l1.442909 3.072L930.839273 349.090909H930.909091l-0.023273 0.069818 0.023273 0.069818v21.224728h-0.023273L930.909091 579.607273a34.909091 34.909091 0 0 1-69.632 3.351272l-0.162909-3.351272V418.909091H163.141818v384a58.181818 58.181818 0 0 0 54.318546 58.065454L221.323636 861.090909h258.397091a34.909091 34.909091 0 0 1 3.374546 69.655273l-3.374546 0.162909H221.323636a127.976727 127.976727 0 0 1-127.860363-122.856727l-0.093091-5.143273-0.023273-453.399273-0.232727-0.093091 72.541091-135.424 1.512727-3.234909a127.953455 127.953455 0 0 1 109.218909-71.005091L281.762909 139.636364H742.4z m168.401455 539.578181c12.846545 12.8 13.847273 32.884364 2.862545 46.266182l-2.187636 2.420364L848.104727 791.272727l63.371637 63.371637 2.187636 2.420363c10.984727 13.381818 9.984 33.442909-2.862545 46.266182-13.637818 13.637818-35.421091 13.963636-48.686546 0.698182L798.72 840.610909l-63.348364 63.371636c-13.265455 13.265455-35.072 12.962909-48.709818-0.674909-12.8-12.8-13.847273-32.884364-2.862545-46.266181l2.210909-2.420364L749.358545 791.272727l-63.348363-63.371636-2.210909-2.420364c-10.984727-13.381818-9.960727-33.442909 2.862545-46.266182 13.637818-13.637818 35.444364-13.963636 48.709818-0.698181l63.348364 63.371636 63.394909-63.348364c13.265455-13.265455 35.048727-12.962909 48.686546 0.674909zM442.274909 500.363636a34.909091 34.909091 0 0 1 0 69.818182h-162.816a34.909091 34.909091 0 0 1 0-69.818182h162.816zM742.4 209.454545H281.762909c-21.550545 0-41.192727 11.892364-51.269818 30.72l-3.025455 6.144L172.450909 349.090909h679.237818l-54.993454-102.795636-1.117091-2.280728a58.181818 58.181818 0 0 0-48.872727-34.39709L742.4 209.454545z" fill="#333333" p-id="32791"></path></svg>